<?xml version="1.0" encoding="UTF-8"?>
<svg width="127.36mm" height="37.904mm" version="1.1" viewBox="0 0 127.36 37.904" xmlns="http://www.w3.org/2000/svg" xmlns:cc="http://creativecommons.org/ns#" xmlns:dc="http://purl.org/dc/elements/1.1/" xmlns:rdf="http://www.w3.org/1999/02/22-rdf-syntax-ns#">
 <defs>
  <clipPath id="clipPath1299">
   <path d="m0 0h1562.5v1562.5h-1562.5z"/>
  </clipPath>
  <clipPath id="clipPath1305">
   <path d="m0 0h1562.5v1562.5h-1562.5z"/>
  </clipPath>
  <clipPath id="clipPath1311">
   <path d="m253.48 1235.6h54.406v54.406h-54.406z"/>
  </clipPath>
  <clipPath id="clipPath1317">
   <path d="m280.68 1235.6c-15.024 0-27.203 12.179-27.203 27.203 0 15.024 12.179 27.203 27.203 27.203 15.024 0 27.203-12.179 27.203-27.203 0-15.024-12.179-27.203-27.203-27.203z"/>
  </clipPath>
  <clipPath id="clipPath1329">
   <path d="m0 0h1562.5v1562.5h-1562.5z"/>
  </clipPath>
  <clipPath id="clipPath1335">
   <path d="m0 0h1562.5v1562.5h-1562.5z"/>
  </clipPath>
  <clipPath id="clipPath1341">
   <path d="m38.823 1023.1h54.406v54.406h-54.406z"/>
  </clipPath>
  <clipPath id="clipPath1347">
   <path d="m66.026 1023.1c-15.024 0-27.203 12.179-27.203 27.203 0 15.024 12.179 27.203 27.203 27.203 15.024 0 27.203-12.179 27.203-27.203 0-15.024-12.179-27.203-27.203-27.203z"/>
  </clipPath>
  <clipPath id="clipPath1359">
   <path d="m0 0h1562.5v1562.5h-1562.5z"/>
  </clipPath>
  <clipPath id="clipPath1365">
   <path d="m0 0h1562.5v1562.5h-1562.5z"/>
  </clipPath>
  <clipPath id="clipPath1371">
   <path d="m249.47 916.11h54.406v54.406h-54.406z"/>
  </clipPath>
  <clipPath id="clipPath1377">
   <path d="m276.68 916.11c-15.024 0-27.203 12.179-27.203 27.203 0 15.024 12.179 27.203 27.203 27.203 15.024 0 27.203-12.179 27.203-27.203 0-15.024-12.179-27.203-27.203-27.203z"/>
  </clipPath>
  <clipPath id="clipPath1389">
   <path d="m23.724 896.47h406.25v406.25h-406.25z" clip-rule="evenodd"/>
  </clipPath>
  <clipPath id="clipPath875-50">
   <path d="m0 59.976h296.88v625h-296.88z" clip-rule="evenodd"/>
  </clipPath>
  <clipPath>
   <path d="m547.72 422.28h465.63v403.12h-465.63z" clip-rule="evenodd"/>
  </clipPath>
  <clipPath id="clipPath1299-8">
   <path d="m0 0h1562.5v1562.5h-1562.5z"/>
  </clipPath>
  <clipPath id="clipPath1305-2">
   <path d="m0 0h1562.5v1562.5h-1562.5z"/>
  </clipPath>
  <clipPath id="clipPath1311-1">
   <path d="m253.48 1235.6h54.406v54.406h-54.406z"/>
  </clipPath>
  <clipPath id="clipPath1317-3">
   <path d="m280.68 1235.6c-15.024 0-27.203 12.179-27.203 27.203 0 15.024 12.179 27.203 27.203 27.203 15.024 0 27.203-12.179 27.203-27.203 0-15.024-12.179-27.203-27.203-27.203z"/>
  </clipPath>
  <clipPath id="clipPath1329-7">
   <path d="m0 0h1562.5v1562.5h-1562.5z"/>
  </clipPath>
  <clipPath id="clipPath1335-9">
   <path d="m0 0h1562.5v1562.5h-1562.5z"/>
  </clipPath>
  <clipPath id="clipPath1341-3">
   <path d="m38.823 1023.1h54.406v54.406h-54.406z"/>
  </clipPath>
  <clipPath id="clipPath1347-5">
   <path d="m66.026 1023.1c-15.024 0-27.203 12.179-27.203 27.203 0 15.024 12.179 27.203 27.203 27.203 15.024 0 27.203-12.179 27.203-27.203 0-15.024-12.179-27.203-27.203-27.203z"/>
  </clipPath>
  <clipPath id="clipPath1359-4">
   <path d="m0 0h1562.5v1562.5h-1562.5z"/>
  </clipPath>
  <clipPath id="clipPath1365-56">
   <path d="m0 0h1562.5v1562.5h-1562.5z"/>
  </clipPath>
  <clipPath id="clipPath1371-2">
   <path d="m249.47 916.11h54.406v54.406h-54.406z"/>
  </clipPath>
  <clipPath id="clipPath1377-4">
   <path d="m276.68 916.11c-15.024 0-27.203 12.179-27.203 27.203 0 15.024 12.179 27.203 27.203 27.203 15.024 0 27.203-12.179 27.203-27.203 0-15.024-12.179-27.203-27.203-27.203z"/>
  </clipPath>
  <clipPath id="clipPath1389-1">
   <path d="m23.724 896.47h406.25v406.25h-406.25z" clip-rule="evenodd"/>
  </clipPath>
  <clipPath id="clipPath875-50-0">
   <path d="m0 59.976h296.88v625h-296.88z" clip-rule="evenodd"/>
  </clipPath>
 </defs>
 <metadata>
  <rdf:RDF>
   <cc:Work rdf:about="">
    <dc:format>image/svg+xml</dc:format>
    <dc:type rdf:resource="http://purl.org/dc/dcmitype/StillImage"/>
    <dc:title/>
   </cc:Work>
  </rdf:RDF>
 </metadata>
 <g transform="translate(-48.933 -84.145)">
  <g transform="translate(5.2158 -119.52)" opacity=".37255">
   <g transform="matrix(.077278 0 0 .077278 42.008 140.09)" opacity=".16912">
    <g clip-path="url(#clipPath1299)">
     <g clip-path="url(#clipPath1305)">
      <g clip-path="url(#clipPath1311)">
       <g clip-path="url(#clipPath1317)">
        <g transform="matrix(.21252 0 0 .21252 253.48 1235.6)">
         <path d="m0 0h256v256h-256z" fill="#ff5757"/>
        </g>
       </g>
      </g>
     </g>
    </g>
    <g clip-path="url(#clipPath1329)">
     <g clip-path="url(#clipPath1335)">
      <g clip-path="url(#clipPath1341)">
       <g clip-path="url(#clipPath1347)">
        <g transform="matrix(.21252 0 0 .21252 38.823 1023.1)">
         <path d="m0 0h256v256h-256z" fill="#ff5757"/>
        </g>
       </g>
      </g>
     </g>
    </g>
   </g>
   <g transform="matrix(.077278 0 0 .077278 42.008 140.09)" opacity=".16912">
    <g clip-path="url(#clipPath1359)">
     <g clip-path="url(#clipPath1365)">
      <g clip-path="url(#clipPath1371)">
       <g clip-path="url(#clipPath1377)">
        <g transform="matrix(.21252 0 0 .21252 249.47 916.11)">
         <path d="m0 0h256v256h-256z" fill="#ff5757"/>
        </g>
       </g>
      </g>
     </g>
    </g>
   </g>
   <g transform="matrix(.077278 0 0 .077278 42.008 140.09)">
    <g clip-path="url(#clipPath1389)">
     <g transform="matrix(.90058 0 0 .894 24.084 901.98)">
      <path d="m210.62 46.29c0.25 7.86-1.79 15.16-5.71 21.88-1.37 2.35-1.01 3.63 0.83 5.46 16.54 16.41 33.02 32.88 49.4 49.45 2.15 2.17 3.59 2.24 6.29 0.79 17.51-9.37 38.45-6.66 52.79 6.56 14.35 13.22 18.81 34.29 11.04 52.12s-25.99 28.88-45.62 27.66c-32.25-2.01-52.53-37.68-37.52-66.44 2.07-3.97 1.33-5.86-1.5-8.65-16-15.76-31.89-31.65-47.65-47.66-2.31-2.34-3.9-2.45-6.71-0.97-14.43 7.56-29.01 7.55-43.35-0.19-2.58-1.4-3.88-1.13-5.84 0.85-16.39 16.55-32.86 33.03-49.43 49.41-2.08 2.06-2.03 3.53-0.77 5.98 16.48 32.09-6.16 68.48-42.04 67.72-24.62-0.52999-45.02-21.61-44.83-46.33 0.19-24.88 20.71-45.32 45.5-45.53 8.2-0.07 15.82 1.7 22.85 5.83 2.09 1.23 3.34 1.08 5.08-0.66001 16.73-16.69 33.49-33.34 50.42-49.83 2.5-2.44 1.54-4.06 0.33-6.4-13.88-26.72 0.42-58.62 29.45-65.84 29.24-7.27 57.02 14.55 57 44.79zm-18.98 0.4c0.07-14.77-12.14-27.09-26.88-27.11-14.82-0.02-27 12.23-26.89 27.06 0.11001 14.74 11.89 26.59 26.64 26.81 14.81 0.21 27.07-11.87 27.13-26.75v-0.01zm90.64 90.72c-14.87 0.12-26.91 12.42-26.66 27.21 0.25 14.74 12.16 26.54 26.84 26.58 14.67 0.04 27.09-12.37 27.01-27.02-0.08-14.72-12.45-26.9-27.19-26.78v0.01zm-235.96 0.67c-15.24 0.11-26.6 11.68-26.52 27.01 0.08 15.07 11.82 26.47 27.15 26.37 14.88-0.09 26.41-11.77 26.38-26.71-0.03-15.02-11.93-26.78-27.02-26.67h0.01001z" opacity=".16912"/>
      <path d="m118.42 400.75c-0.11-8 1.78-15.52 5.88-22.35 1.3-2.17 0.98-3.34-0.7-5.01-16.76-16.65-33.54-33.29-50.06-50.17-2.71-2.77-4.33-0.98999-6.36 0.05-30.89 15.79-67.55-6.71-67.18-41.27 0.37-34.05 37.03-56.08 67.1-40.16 3.28 1.74 5 1.45 7.54-1.11 15.82-15.94 31.77-31.76 47.83-47.46 2.73-2.67 3.4-4.5 1.52-8.31-8.79-17.82-6.97-35.08 5.68-50.25 12.45-14.92 29.09-19.67 47.68-14.52 18.96 5.25 30.23 18.55 32.9 37.91 2.48 18.07-4.1 33.26-19.18 43.75-15 10.44-31.22 11.42-47.57 2.99-3.21-1.65-4.77-1.22-7.11 1.16-16.01 16.22-32.13 32.34-48.35 48.35-2.25 2.23-2.63 3.79-1.09 6.69 7.61 14.4 7.68 28.97-0.16 43.31-1.55 2.83-0.88 4.29 1.15 6.31 16.25 16.22 32.44 32.5 48.51 48.9 2.39 2.44 4.01 2.71 7.13 1.08 30.66-16.05 67.43 6.4 66.84 40.67-0.44 25.23-20.97 45.53-46.06 45.54-25.25 0.01-45.77-20.57-45.92-46.1zm46.08-209.3c15.24 0.06 27.07-11.49 27.14-26.5 0.07-14.91-11.86-26.84-26.87-26.87-15.11-0.03-27 11.82-26.9 26.81 0.10001 14.87 11.76 26.51 26.64 26.57l-0.01-0.01zm-0.42 236.04c14.58 0.48001 27.05-11.16 27.55-25.72 0.51-14.63-10.76-27.16-24.91-27.72-16.18-0.64002-28.51 10.61-28.85 26.32-0.32 14.5 11.4 26.63 26.21 27.12zm-117.54-118.24c15.16 0 26.85-11.72 26.77-26.84-0.07-14.99-11.5-26.46-26.5-26.63-15-0.16-27.01 11.68-27.03 26.66-0.02 15.2 11.57 26.81 26.75 26.81h0.01z" opacity=".16912"/>
      <path d="m399.09 328.39c-5.88 0.16001-13.07-1.73-19.65-5.56-2.44-1.42-3.79-1.46-5.86 0.64001-16.5 16.69-33.09 33.28-49.78 49.79-1.96 1.94-1.76 3.19-0.59 5.44 15.74 30.39-3.03 65.13-37.11 67.88-17.18 1.39-31.32-5.73-41-20.05-9.9-14.64-10.93-30.45-2.97-46.3 1.98-3.93 1.37-5.8-1.49-8.61-15.9-15.63-31.67-31.41-47.32-47.3-2.5-2.54-4.22-2.8-7.47-1.18-16.8 8.35-33.31 7.41-48.37-3.86-15.55-11.63-21.59-27.72-17.49-46.65 3.91-18.09 15.42-30 33.5-34.52 18.91-4.73 35.12 0.84 47.15 15.97 12.06 15.17 13.47 32.16 4.76 49.54-1.71 3.41-1.15 5.04 1.26 7.46 16.02 16 31.94 32.08 47.75 48.28 2.25 2.3 3.73 2.49 6.64 0.98001 14.42-7.49 29.07-7.56 43.4 0.20999 2.96 1.6 4.27 0.76999 6.21-1.15 16.33-16.15 32.69-32.27 49.17-48.27 2.32-2.25 2.48-3.78 0.92001-6.68-9.25-17.27-6.52-38.14 6.52-52.37 13.04-14.22 33.36-18.87 51.15-11.7 17.72 7.14 29.39 25.16 28.78 44.44-0.76001 24.16-21.52 43.69-48.12 43.58l0.01-0.0101zm-234.61-19.13c15.23 0.07 27.08-11.5 27.17-26.52 0.09-15.07-11.65-26.89-26.76-26.95-14.9-0.06-27.09 12.05-27.02 26.85 0.07 14.83 11.8 26.56 26.61 26.63v-0.01zm236.71 0c14.89 0.02 27.05-12.06 27-26.82-0.06-14.96-12.08-26.78-27.1-26.65-14.9 0.13-26.6 11.74-26.69 26.51-0.1 14.88 11.89 26.95 26.8 26.97l-0.01-0.01zm-91.5 91.31c-0.06-15.21-11.6-26.59-26.92-26.53-15.12 0.05-26.5 11.72-26.4 27.04 0.1 14.81 11.83 26.44 26.66 26.43 15.05-0.01 26.72-11.8 26.66-26.93v-0.01z" opacity=".16912"/>
      <path d="m282.6 328.54c-23.9-0.13001-44.22-18.67-45.93-42.05-1.79-24.48 15-45.55 38.99-49.36 10.13-1.61 19.54 0.10001 28.36 4.96 2.97 1.63 4.56 1.09 6.76-1.11 16.23-16.24 32.54-32.39 48.95-48.46 2.21-2.17 2.73-3.64 1.14-6.66-7.55-14.38-7.65-29.01 0.09-43.35 1.55-2.88 0.95001-4.25-1.06-6.24-16.41-16.29-32.8-32.61-49.03-49.08-2.21-2.24-3.67-2.04-6.22-0.76-17.31 8.71-34.19 7.73-49.64-4.03-15.18-11.56-20.74-27.56-16.81-45.99 4.09-19.18 16.64-31.4 35.74-35.31 18.48-3.78 34.39 2.23 45.75 17.51 11.16 15.02 12.49 31.51 4.03 48.31-1.75 3.48-1.41 5.18 1.25 7.82 16.07 15.93 31.97 32.03 47.8 48.19 2.27 2.32 3.89 3.08 7.09 1.38 17.51-9.3 38.24-6.62 52.27 6.43 14.19 13.2 18.57 33.95 10.91 51.69-7.76 17.98-26.34 29.25-46.04 27.72-6.51-0.50999-12.77-2.29-18.37-5.75-2.31-1.43-3.7-1.01-5.52 0.82001-16.52 16.65-33.1 33.25-49.77 49.75-1.94 1.92-1.81 3.27-0.64002 5.53 14.65 28.15-0.33999 60.31-31.22 67.05-2.9 0.63-5.93 0.66-8.9 0.97l0.02 0.02zm91.78-164.09c0.10001 14.52 12.18 26.61 26.73 26.74 14.61 0.13 27.1-12.31 27.07-26.97-0.04-14.9-12.11-26.88-27.03-26.83-14.93 0.06-26.87 12.12-26.77 27.05l-4e-5 0.01zm-118.02 118.09c0.02 15.08 11.77 26.76 26.85 26.71 14.76-0.05 26.42-11.76 26.47-26.59 0.06-15.32-11.34-26.83-26.61-26.87-15.25-0.04-26.74 11.46-26.72 26.76l0.01-0.01zm53.32-236.63c-0.04-15.3-11.51-26.61-26.89-26.53-14.89 0.08-26.4 11.65-26.43 26.58-0.03 15.34 11.35 26.75 26.69 26.73 15.33-0.01 26.68-11.42 26.64-26.79l-0.01 0.01z" opacity=".16912"/>
      <path d="m92.63 46.27c-0.14 25.14-21.41 46.19-46.36 45.87-25.65-0.34-45.76-20.79-45.59-46.36 0.18-25.62 20.8-46.08 46.13-45.78 25.57 0.31 45.96 20.9 45.82 46.26l-8e-6 0.01zm-72.83-0.15c-0.1 15.24 11.39 27.11 26.44 27.33 14.87 0.22 26.95-11.72 27.09-26.74 0.13-14.81-12.03-27.12-26.79-27.13-14.78 0-26.63 11.76-26.73 26.54l-0.01001-4e-6z" opacity=".16912"/>
      <path d="m46.54 447.07c-25.54 0-45.86-20.32-45.85-45.86 0.01-25.43 20.55-46.02 45.88-46 25 0.02 45.89 20.95 46.06 46.15 0.16 25.26-20.45 45.71-46.08 45.72l-0.01-0.01zm0.16-73.04c-15.23-0.03-26.88 11.49-26.9 26.63-0.02 14.99 11.87 26.89 26.83 26.84 14.81-0.04999 26.51-11.68 26.69-26.51 0.18-15.09-11.51-26.93-26.62-26.96z" opacity=".16912"/>
      <path d="m355.41 45.93c0.02-25.35 20.85-46.14 46.03-45.93 25.56 0.21 45.84 20.66 45.8 46.16-0.04 25.23-21.01 46.13-46.13 45.96-25.54-0.17-45.72-20.57-45.7-46.19zm18.97 0.62c0.02 14.92 12.15 27 27 26.9 14.87-0.1 27.02-12.42 26.79-27.16-0.22-14.58-12.36-26.64-26.87-26.7-14.85-0.06-26.95 12.05-26.93 26.97l0.01-0.01z" opacity=".16912"/>
      <path d="m401.08 447.07c-25.71-0.07001-45.74-20.46-45.66-46.5 0.08-24.9 20.87-45.41 45.97-45.36 25.2 0.05 45.99 21.25 45.85 46.74-0.14001 24.93-20.86 45.18-46.16 45.12zm0.42999-73.04c-15.21-0.06-27.04 11.53-27.13 26.55-0.08 14.84 11.99 26.93 26.88 26.93 14.88 0 27.08-12.21 26.93-26.94-0.14999-14.84-11.86-26.49-26.68-26.54z" opacity=".16912"/>
     </g>
    </g>
   </g>
   <g fill-opacity="0">
    <path d="m43.842 240.88h31.281v-31.51h-31.281z" opacity=".16912"/>
    <path d="m45.009 223.36h4.2044v-4.2044h-4.2044z" opacity=".16912"/>
    <path d="m61.287 215.09h4.2044v-4.2044h-4.2044z" opacity=".16912"/>
    <path d="m61.596 239.78h4.2044v-4.2044h-4.2044z" opacity=".16912"/>
   </g>
   <g transform="matrix(.077278 0 0 .077278 73.772 140.21)" opacity=".16912">
    <g clip-path="url(#clipPath1299-8)">
     <g clip-path="url(#clipPath1305-2)">
      <g clip-path="url(#clipPath1311-1)">
       <g clip-path="url(#clipPath1317-3)">
        <g transform="matrix(.21252 0 0 .21252 253.48 1235.6)">
         <path d="m0 0h256v256h-256z" fill="#ff5757"/>
        </g>
       </g>
      </g>
     </g>
    </g>
    <g clip-path="url(#clipPath1329-7)">
     <g clip-path="url(#clipPath1335-9)">
      <g clip-path="url(#clipPath1341-3)">
       <g clip-path="url(#clipPath1347-5)">
        <g transform="matrix(.21252 0 0 .21252 38.823 1023.1)">
         <path d="m0 0h256v256h-256z" fill="#ff5757"/>
        </g>
       </g>
      </g>
     </g>
    </g>
   </g>
   <g transform="matrix(.077278 0 0 .077278 73.772 140.21)" opacity=".16912">
    <g clip-path="url(#clipPath1359-4)">
     <g clip-path="url(#clipPath1365-56)">
      <g clip-path="url(#clipPath1371-2)">
       <g clip-path="url(#clipPath1377-4)">
        <g transform="matrix(.21252 0 0 .21252 249.47 916.11)">
         <path d="m0 0h256v256h-256z" fill="#ff5757"/>
        </g>
       </g>
      </g>
     </g>
    </g>
   </g>
   <g transform="matrix(.077278 0 0 .077278 73.772 140.21)">
    <g clip-path="url(#clipPath1389-1)">
     <g transform="matrix(.90058 0 0 .894 24.084 901.98)">
      <path d="m210.62 46.29c0.25 7.86-1.79 15.16-5.71 21.88-1.37 2.35-1.01 3.63 0.83 5.46 16.54 16.41 33.02 32.88 49.4 49.45 2.15 2.17 3.59 2.24 6.29 0.79 17.51-9.37 38.45-6.66 52.79 6.56 14.35 13.22 18.81 34.29 11.04 52.12s-25.99 28.88-45.62 27.66c-32.25-2.01-52.53-37.68-37.52-66.44 2.07-3.97 1.33-5.86-1.5-8.65-16-15.76-31.89-31.65-47.65-47.66-2.31-2.34-3.9-2.45-6.71-0.97-14.43 7.56-29.01 7.55-43.35-0.19-2.58-1.4-3.88-1.13-5.84 0.85-16.39 16.55-32.86 33.03-49.43 49.41-2.08 2.06-2.03 3.53-0.77 5.98 16.48 32.09-6.16 68.48-42.04 67.72-24.62-0.52999-45.02-21.61-44.83-46.33 0.19-24.88 20.71-45.32 45.5-45.53 8.2-0.07 15.82 1.7 22.85 5.83 2.09 1.23 3.34 1.08 5.08-0.66001 16.73-16.69 33.49-33.34 50.42-49.83 2.5-2.44 1.54-4.06 0.33-6.4-13.88-26.72 0.42-58.62 29.45-65.84 29.24-7.27 57.02 14.55 57 44.79zm-18.98 0.4c0.07-14.77-12.14-27.09-26.88-27.11-14.82-0.02-27 12.23-26.89 27.06 0.11001 14.74 11.89 26.59 26.64 26.81 14.81 0.21 27.07-11.87 27.13-26.75v-0.01zm90.64 90.72c-14.87 0.12-26.91 12.42-26.66 27.21 0.25 14.74 12.16 26.54 26.84 26.58 14.67 0.04 27.09-12.37 27.01-27.02-0.08-14.72-12.45-26.9-27.19-26.78v0.01zm-235.96 0.67c-15.24 0.11-26.6 11.68-26.52 27.01 0.08 15.07 11.82 26.47 27.15 26.37 14.88-0.09 26.41-11.77 26.38-26.71-0.03-15.02-11.93-26.78-27.02-26.67h0.01001z" opacity=".16912"/>
      <path d="m118.42 400.75c-0.11-8 1.78-15.52 5.88-22.35 1.3-2.17 0.98-3.34-0.7-5.01-16.76-16.65-33.54-33.29-50.06-50.17-2.71-2.77-4.33-0.98999-6.36 0.05-30.89 15.79-67.55-6.71-67.18-41.27 0.37-34.05 37.03-56.08 67.1-40.16 3.28 1.74 5 1.45 7.54-1.11 15.82-15.94 31.77-31.76 47.83-47.46 2.73-2.67 3.4-4.5 1.52-8.31-8.79-17.82-6.97-35.08 5.68-50.25 12.45-14.92 29.09-19.67 47.68-14.52 18.96 5.25 30.23 18.55 32.9 37.91 2.48 18.07-4.1 33.26-19.18 43.75-15 10.44-31.22 11.42-47.57 2.99-3.21-1.65-4.77-1.22-7.11 1.16-16.01 16.22-32.13 32.34-48.35 48.35-2.25 2.23-2.63 3.79-1.09 6.69 7.61 14.4 7.68 28.97-0.16 43.31-1.55 2.83-0.88 4.29 1.15 6.31 16.25 16.22 32.44 32.5 48.51 48.9 2.39 2.44 4.01 2.71 7.13 1.08 30.66-16.05 67.43 6.4 66.84 40.67-0.44 25.23-20.97 45.53-46.06 45.54-25.25 0.01-45.77-20.57-45.92-46.1zm46.08-209.3c15.24 0.06 27.07-11.49 27.14-26.5 0.07-14.91-11.86-26.84-26.87-26.87-15.11-0.03-27 11.82-26.9 26.81 0.10001 14.87 11.76 26.51 26.64 26.57l-0.01-0.01zm-0.42 236.04c14.58 0.48001 27.05-11.16 27.55-25.72 0.51-14.63-10.76-27.16-24.91-27.72-16.18-0.64002-28.51 10.61-28.85 26.32-0.32 14.5 11.4 26.63 26.21 27.12zm-117.54-118.24c15.16 0 26.85-11.72 26.77-26.84-0.07-14.99-11.5-26.46-26.5-26.63-15-0.16-27.01 11.68-27.03 26.66-0.02 15.2 11.57 26.81 26.75 26.81h0.01z" opacity=".16912"/>
      <path d="m399.09 328.39c-5.88 0.16001-13.07-1.73-19.65-5.56-2.44-1.42-3.79-1.46-5.86 0.64001-16.5 16.69-33.09 33.28-49.78 49.79-1.96 1.94-1.76 3.19-0.59 5.44 15.74 30.39-3.03 65.13-37.11 67.88-17.18 1.39-31.32-5.73-41-20.05-9.9-14.64-10.93-30.45-2.97-46.3 1.98-3.93 1.37-5.8-1.49-8.61-15.9-15.63-31.67-31.41-47.32-47.3-2.5-2.54-4.22-2.8-7.47-1.18-16.8 8.35-33.31 7.41-48.37-3.86-15.55-11.63-21.59-27.72-17.49-46.65 3.91-18.09 15.42-30 33.5-34.52 18.91-4.73 35.12 0.84 47.15 15.97 12.06 15.17 13.47 32.16 4.76 49.54-1.71 3.41-1.15 5.04 1.26 7.46 16.02 16 31.94 32.08 47.75 48.28 2.25 2.3 3.73 2.49 6.64 0.98001 14.42-7.49 29.07-7.56 43.4 0.20999 2.96 1.6 4.27 0.76999 6.21-1.15 16.33-16.15 32.69-32.27 49.17-48.27 2.32-2.25 2.48-3.78 0.92001-6.68-9.25-17.27-6.52-38.14 6.52-52.37 13.04-14.22 33.36-18.87 51.15-11.7 17.72 7.14 29.39 25.16 28.78 44.44-0.76001 24.16-21.52 43.69-48.12 43.58l0.01-0.0101zm-234.61-19.13c15.23 0.07 27.08-11.5 27.17-26.52 0.09-15.07-11.65-26.89-26.76-26.95-14.9-0.06-27.09 12.05-27.02 26.85 0.07 14.83 11.8 26.56 26.61 26.63v-0.01zm236.71 0c14.89 0.02 27.05-12.06 27-26.82-0.06-14.96-12.08-26.78-27.1-26.65-14.9 0.13-26.6 11.74-26.69 26.51-0.1 14.88 11.89 26.95 26.8 26.97l-0.01-0.01zm-91.5 91.31c-0.06-15.21-11.6-26.59-26.92-26.53-15.12 0.05-26.5 11.72-26.4 27.04 0.1 14.81 11.83 26.44 26.66 26.43 15.05-0.01 26.72-11.8 26.66-26.93v-0.01z" opacity=".16912"/>
      <path d="m282.6 328.54c-23.9-0.13001-44.22-18.67-45.93-42.05-1.79-24.48 15-45.55 38.99-49.36 10.13-1.61 19.54 0.10001 28.36 4.96 2.97 1.63 4.56 1.09 6.76-1.11 16.23-16.24 32.54-32.39 48.95-48.46 2.21-2.17 2.73-3.64 1.14-6.66-7.55-14.38-7.65-29.01 0.09-43.35 1.55-2.88 0.95001-4.25-1.06-6.24-16.41-16.29-32.8-32.61-49.03-49.08-2.21-2.24-3.67-2.04-6.22-0.76-17.31 8.71-34.19 7.73-49.64-4.03-15.18-11.56-20.74-27.56-16.81-45.99 4.09-19.18 16.64-31.4 35.74-35.31 18.48-3.78 34.39 2.23 45.75 17.51 11.16 15.02 12.49 31.51 4.03 48.31-1.75 3.48-1.41 5.18 1.25 7.82 16.07 15.93 31.97 32.03 47.8 48.19 2.27 2.32 3.89 3.08 7.09 1.38 17.51-9.3 38.24-6.62 52.27 6.43 14.19 13.2 18.57 33.95 10.91 51.69-7.76 17.98-26.34 29.25-46.04 27.72-6.51-0.50999-12.77-2.29-18.37-5.75-2.31-1.43-3.7-1.01-5.52 0.82001-16.52 16.65-33.1 33.25-49.77 49.75-1.94 1.92-1.81 3.27-0.64002 5.53 14.65 28.15-0.33999 60.31-31.22 67.05-2.9 0.63-5.93 0.66-8.9 0.97l0.02 0.02zm91.78-164.09c0.10001 14.52 12.18 26.61 26.73 26.74 14.61 0.13 27.1-12.31 27.07-26.97-0.04-14.9-12.11-26.88-27.03-26.83-14.93 0.06-26.87 12.12-26.77 27.05l-4e-5 0.01zm-118.02 118.09c0.02 15.08 11.77 26.76 26.85 26.71 14.76-0.05 26.42-11.76 26.47-26.59 0.06-15.32-11.34-26.83-26.61-26.87-15.25-0.04-26.74 11.46-26.72 26.76l0.01-0.01zm53.32-236.63c-0.04-15.3-11.51-26.61-26.89-26.53-14.89 0.08-26.4 11.65-26.43 26.58-0.03 15.34 11.35 26.75 26.69 26.73 15.33-0.01 26.68-11.42 26.64-26.79l-0.01 0.01z" opacity=".16912"/>
      <path d="m92.63 46.27c-0.14 25.14-21.41 46.19-46.36 45.87-25.65-0.34-45.76-20.79-45.59-46.36 0.18-25.62 20.8-46.08 46.13-45.78 25.57 0.31 45.96 20.9 45.82 46.26l-8e-6 0.01zm-72.83-0.15c-0.1 15.24 11.39 27.11 26.44 27.33 14.87 0.22 26.95-11.72 27.09-26.74 0.13-14.81-12.03-27.12-26.79-27.13-14.78 0-26.63 11.76-26.73 26.54l-0.01001-4e-6z" opacity=".16912"/>
      <path d="m46.54 447.07c-25.54 0-45.86-20.32-45.85-45.86 0.01-25.43 20.55-46.02 45.88-46 25 0.02 45.89 20.95 46.06 46.15 0.16 25.26-20.45 45.71-46.08 45.72l-0.01-0.01zm0.16-73.04c-15.23-0.03-26.88 11.49-26.9 26.63-0.02 14.99 11.87 26.89 26.83 26.84 14.81-0.04999 26.51-11.68 26.69-26.51 0.18-15.09-11.51-26.93-26.62-26.96z" opacity=".16912"/>
      <path d="m355.41 45.93c0.02-25.35 20.85-46.14 46.03-45.93 25.56 0.21 45.84 20.66 45.8 46.16-0.04 25.23-21.01 46.13-46.13 45.96-25.54-0.17-45.72-20.57-45.7-46.19zm18.97 0.62c0.02 14.92 12.15 27 27 26.9 14.87-0.1 27.02-12.42 26.79-27.16-0.22-14.58-12.36-26.64-26.87-26.7-14.85-0.06-26.95 12.05-26.93 26.97l0.01-0.01z" opacity=".16912"/>
      <path d="m401.08 447.07c-25.71-0.07001-45.74-20.46-45.66-46.5 0.08-24.9 20.87-45.41 45.97-45.36 25.2 0.05 45.99 21.25 45.85 46.74-0.14001 24.93-20.86 45.18-46.16 45.12zm0.42999-73.04c-15.21-0.06-27.04 11.53-27.13 26.55-0.08 14.84 11.99 26.93 26.88 26.93 14.88 0 27.08-12.21 26.93-26.94-0.14999-14.84-11.86-26.49-26.68-26.54z" opacity=".16912"/>
     </g>
    </g>
   </g>
   <g fill-opacity="0">
    <path d="m75.606 241h31.281v-31.51h-31.281z" opacity=".16912"/>
    <path d="m76.772 223.48h4.2044v-4.2044h-4.2044z" opacity=".16912"/>
    <path d="m93.051 215.21h4.2044v-4.2044h-4.2044z" opacity=".16912"/>
    <path d="m93.36 239.9h4.2044v-4.2044h-4.2044z" opacity=".16912"/>
   </g>
  </g>
  <text x="45.154087" y="121.25293" font-family="'Times New Roman'" font-size="24.49px" stroke-width="1.148" style="line-height:1.25" xml:space="preserve"><tspan x="45.154087" y="121.25293" font-family="Consolas" font-size="48.981px" stroke-width="1.148" style="font-variant-caps:normal;font-variant-east-asian:normal;font-variant-ligatures:normal;font-variant-numeric:normal">P</tspan></text>
  <g transform="matrix(-.12314 0 0 .12314 187.11 43.103)">
   <g transform="translate(69.448 -50.508)" clip-path="url(#clipPath875-50)">
    <g transform="matrix(6.0157 0 0 6.0325 0 63.188)">
     <path d="m58.798 65.086h-10.479l-17.619 16.19-0.29081 0.359h-10.951c-0.14039 0.37894-0.36101 0.72796-0.65182 1.0072-0.5014 0.49861-1.2034 0.81771-1.9755 0.81771-0.77215 0-1.4741-0.30914-1.9755-0.81771-0.5014-0.49861-0.82229-1.1967-0.82229-1.9645 0-0.76785 0.31086-1.4659 0.82229-1.9645 0.5014-0.49861 1.2034-0.81771 1.9755-0.81771 0.77215 0 1.4741 0.30914 1.9755 0.81771 0.28078 0.27922 0.51143 0.62824 0.65182 1.0072h10.018l16.376-14.644h-17.459l-6.3612 8.5114-0.29081 0.359h-10.449c-0.14039 0.37894-0.36101 0.72796-0.65182 1.0072-0.5014 0.49861-1.2034 0.81771-1.9755 0.81771-0.77215 0-1.4741-0.30914-1.9755-0.81771-0.5014-0.49861-0.82229-1.1967-0.82229-1.9645 0-0.76785 0.31086-1.4659 0.82229-1.9645 0.5014-0.49861 1.2034-0.81771 1.9755-0.81771 0.77215 0 1.4741 0.30914 1.9755 0.81771 0.28078 0.27922 0.51143 0.62824 0.65182 1.0072h9.5266l5.1178-6.9657h-17.449c-0.14039 0.37894-0.36101 0.72796-0.65182 1.0072-0.5014 0.49861-1.2034 0.81771-1.9755 0.81771-0.77215 0-1.4741-0.30914-1.9755-0.81771-0.5014-0.49861-0.82229-1.1967-0.82229-1.9645 0-0.76785 0.31086-1.4659 0.82229-1.9645 0.5014-0.49861 1.2034-0.81771 1.9755-0.81771 0.77215 0 1.4741 0.30914 1.9755 0.81771 0.28078 0.27922 0.51143 0.62824 0.65182 1.0072h9.0853l2.4568-0.01h21.891l-10.118-6.2533h-10.018c-0.14039 0.37894-0.36101 0.72796-0.65182 1.0072-0.5014 0.49861-1.2034 0.81771-1.9755 0.81771-0.77215 0-1.4741-0.30914-1.9755-0.81771-0.5014-0.49861-0.82229-1.1967-0.82229-1.9645 0-0.76785 0.31086-1.4659 0.82229-1.9645 0.5014-0.49861 1.2034-0.81771 1.9755-0.81771 0.77215 0 1.4741 0.30914 1.9755 0.81771 0.28078 0.27922 0.51143 0.62824 0.65182 1.0072h10.941l0.29081 0.359 11.362 7.7991h18.381v1.9146h-3.951l-0.01003 0.0399zm-52.306-0.34902c0.16045-0.15955 0.2507-0.36897 0.2507-0.6083s-0.10028-0.45872-0.2507-0.6083c-0.16045-0.15955-0.37104-0.2493-0.61171-0.2493-0.24067 0-0.46129 0.09972-0.61171 0.2493-0.16045 0.15955-0.2507 0.36897-0.2507 0.6083s0.10028 0.45872 0.2507 0.6083c0.16045 0.15955 0.37104 0.2493 0.61171 0.2493 0.24067 0 0.46129-0.09972 0.61171-0.2493zm2.7943 8.8804c0.16045-0.15955 0.2507-0.36897 0.2507-0.6083 0-0.23933-0.10028-0.45872-0.2507-0.6083-0.16045-0.15955-0.37104-0.2493-0.61171-0.2493-0.24067 0-0.46129 0.09972-0.61171 0.2493-0.16045 0.15955-0.2507 0.36897-0.2507 0.6083 0 0.23933 0.10028 0.45872 0.2507 0.6083 0.16045 0.15955 0.37104 0.2493 0.61171 0.2493 0.24067 0 0.46129-0.09972 0.61171-0.2493zm8.1763 7.6785c0.16045-0.15955 0.2507-0.36897 0.2507-0.6083 0-0.23933-0.10028-0.45872-0.2507-0.6083-0.16045-0.15955-0.37104-0.2493-0.6117-0.2493s-0.46128 0.09972-0.61171 0.2493c-0.16045 0.15955-0.2507 0.36897-0.2507 0.6083 0 0.23933 0.10028 0.45872 0.2507 0.6083 0.16045 0.15955 0.37104 0.2493 0.61171 0.2493s0.46128-0.09972 0.6117-0.2493zm2.3064-24.727c0.16045-0.15955 0.2507-0.36897 0.2507-0.6083 0-0.23933-0.10028-0.45872-0.2507-0.6083-0.16045-0.15955-0.37104-0.2493-0.6117-0.2493s-0.46128 0.09972-0.61171 0.2493c-0.16045 0.15955-0.2507 0.36897-0.2507 0.6083 0 0.23933 0.10028 0.45872 0.2507 0.6083 0.16045 0.15955 0.37104 0.2493 0.61171 0.2493s0.46128-0.09972 0.6117-0.2493z" fill="#373435" fill-rule="evenodd" style="paint-order:fill markers stroke"/>
    </g>
   </g>
  </g>
  <g transform="matrix(.035906 0 0 .035906 27.498 71.407)" fill-rule="evenodd">
   <path d="m2469.9 1288.6 178.85-506.65s23.77-62.88 55.15-129.75c11.56 3.73 24.01 5.34 36.87 4.39 26.66-1.97 50.01-14.57 66.19-33.34 16.18-18.77 25.21-43.71 23.24-70.38-1.97-26.66-14.57-50.01-33.34-66.19-18.77-16.18-43.71-25.21-70.38-23.24-26.66 1.97-50.01 14.57-66.19 33.34-16.18 18.77-25.21 43.71-23.24 70.38 1.19 16.12 6.27 31.02 14.24 43.86-122.58 210.52-239.17 611.39-239.17 611.39s-87.44 183.69 83.37 180.35c66.8-1.31 97.73 8.75 250.15-106.26 80.1-60.44 336.94-212.92 336.94-212.92l81.79 164.37c18.63 53.86 40.92 114.87-117.74 68.43 0.09-3.29 0.02-6.62-0.23-9.98-1.9699-26.66-14.57-50.01-33.34-66.19s-43.71-25.21-70.38-23.24c-26.66 1.97-50.01 14.57-66.19 33.34-16.18 18.77-25.21 43.71-23.24 70.38 1.97 26.66 14.57 50.01 33.34 66.19 18.77 16.19 43.71 25.21 70.38 23.24 25.64-1.9 48.2-13.61 64.29-31.2 197.57 66.65 274.97-37.17 168.45-235.04-64.08-119.02-228.2-487.09-228.2-487.09l-25.23 79.12 112.42 275.53-393.15 259.52c-31.15 25.47-218.61 105.46-185.64 17.62l-0.01 0.022zm454.41 54.53c-7.57-6.52-12.65-15.94-13.44-26.7-0.8-10.76 2.84-20.82 9.37-28.38 6.52-7.5701 15.94-12.65 26.7-13.44 10.76-0.8001 20.82 2.84 28.38 9.37 7.57 6.52 12.65 15.94 13.44 26.7 0.8 10.76-2.8401 20.82-9.37 28.38-6.52 7.5701-15.94 12.65-26.7 13.44-10.76 0.8001-20.82-2.84-28.38-9.37zm-161.12-757.61c-6.52 7.57-15.94 12.65-26.7 13.44-10.76 0.8-20.82-2.84-28.38-9.37-7.5701-6.52-12.65-15.94-13.44-26.7-0.7999-10.76 2.84-20.82 9.3701-28.38 6.5199-7.57 15.94-12.65 26.7-13.44 10.76-0.8 20.82 2.84 28.38 9.37 7.57 6.52 12.65 15.94 13.44 26.7 0.8 10.76-2.84 20.82-9.37 28.38z" fill="#008000"/>
   <path d="m2653.7 1345 141.43-425.92c3.88 0.18 7.82 0.1299 11.79-0.1601 26.66-1.97 50.01-14.57 66.19-33.34s25.21-43.71 23.24-70.38c-1.97-26.66-14.57-50.01-33.34-66.19s-43.71-25.21-70.38-23.24c-26.66 1.97-50.01 14.57-66.19 33.34s-25.21 43.71-23.24 70.38c1.97 26.66 14.57 50.01 33.34 66.19 0.84 0.73 1.69 1.44 2.56 2.13l-112.5 317.39c-68.27 187.93-180.8 55.708-212.4 91.658l-18.144 49.778c69.257 114.62 251.13 9.2978 251.13 9.2978zm148.96-483.7c-10.76 0.7999-20.82-2.8401-28.38-9.37-7.57-6.5201-12.65-15.94-13.44-26.7-0.8-10.76 2.84-20.82 9.37-28.38 6.52-7.57 15.94-12.65 26.7-13.44 10.76-0.7999 20.82 2.8401 28.38 9.37 7.57 6.5201 12.65 15.94 13.44 26.7 0.8 10.76-2.84 20.82-9.37 28.38-6.5199 7.5701-15.94 12.65-26.7 13.44z" fill="#917c6f"/>
  </g>
  <text x="84.55513" y="121.87201" font-family="'Times New Roman'" font-size="24.49px" stroke-width="1.148" style="line-height:1.25" xml:space="preserve"><tspan x="84.55513" y="121.87201" font-family="Consolas" font-size="48.981px" stroke-width="1.148" style="font-variant-caps:normal;font-variant-east-asian:normal;font-variant-ligatures:normal;font-variant-numeric:normal">M</tspan></text>
  <text x="138.55524" y="121.42847" font-family="'Times New Roman'" font-size="24.49px" stroke-width="1.148" style="line-height:1.25" xml:space="preserve"><tspan x="138.55524" y="121.42847" font-family="Consolas" font-size="48.981px" stroke-width="1.148" style="font-variant-caps:normal;font-variant-east-asian:normal;font-variant-ligatures:normal;font-variant-numeric:normal">T</tspan></text>
  <g transform="matrix(.084667 0 0 .084667 107.64 -29.847)">
   <g transform="translate(-63.135 142.05)"></g>
  </g>
  <g transform="matrix(.12314 0 0 -.12314 51.456 159.37)" fill="#1a1a1a">
   <g transform="translate(69.448 -50.508)" clip-path="url(#clipPath875-50-0)" fill="#1a1a1a">
    <g transform="matrix(6.0157 0 0 6.0325 0 63.188)" fill="#1a1a1a">
     <path d="m22.692 52.105v-1.2754 1.04l6.9487 5.4599 0.36 0.29v10.92c0.38 0.14 0.73 0.36 1.01 0.65 0.5 0.5 0.82 1.2 0.82 1.97 0 0.77-0.31 1.47-0.82 1.97-0.5 0.5-1.2 0.82-1.97 0.82-0.77 0-1.47-0.31-1.97-0.82-0.5-0.5-0.82-1.2-0.82-1.97 0-0.77 0.31-1.47 0.82-1.97 0.28-0.28 0.63-0.51 1.01-0.65v-9.99l-5.3987-4.2199v17.41l8.5352 10.618 0.36 0.29v5.4335c0.38 0.14 0.73 0.36 1.01 0.65 0.5 0.5 0.82 1.2 0.82 1.97 0 0.77-0.31 1.47-0.82 1.97-0.5 0.5-1.2 0.82-1.97 0.82-0.77 0-1.47-0.31-1.97-0.82-0.5-0.5-0.82-1.2-0.82-1.97 0-0.77 0.31-1.47 0.82-1.97 0.28-0.28 0.63-0.51 1.01-0.65v-4.5135l-6.9852-9.3776v12.414c0.38 0.14 0.73 0.36 1.01 0.65 0.5 0.5 0.82 1.2 0.82 1.97 0 0.77-0.31 1.47-0.82 1.97-0.5 0.5-1.2 0.82-1.97 0.82-0.77 0-1.47-0.31-1.97-0.82-0.5-0.5-0.82-1.2-0.82-1.97 0-0.77 0.31-1.47 0.82-1.97 0.28-0.28 0.63-0.51 1.01-0.65v-4.0735l-0.01003-2.45v-21.83l-4.1278 3.6788v9.99c0.38 0.14 0.73 0.36 1.01 0.65 0.5 0.5 0.82 1.2 0.82 1.97 0 0.77-0.31 1.47-0.82 1.97-0.5 0.5-1.2 0.82-1.97 0.82-0.77 0-1.47-0.31-1.97-0.82-0.5-0.5-0.82-1.2-0.82-1.97 0-0.77 0.31-1.47 0.82-1.97 0.28-0.28 0.63-0.51 1.01-0.65v-10.91l0.36-0.29 5.6778-4.9188v-4.98 1.2754-3.94h1.92v3.94l0.04001 0.01zm-0.35 36.488c-0.16-0.16-0.37-0.25-0.61-0.25-0.24 0-0.46 0.1-0.61 0.25-0.16 0.16-0.25 0.37-0.25 0.61 0 0.24 0.1 0.46 0.25 0.61 0.16 0.16 0.37 0.25 0.61 0.25 0.24 0 0.46-0.1 0.61-0.25 0.16-0.16 0.25-0.37 0.25-0.61 0-0.24-0.1-0.46-0.25-0.61zm8.9052 1.4876c-0.16-0.16-0.37-0.25-0.61-0.25s-0.46 0.1-0.61 0.25c-0.16 0.16-0.25 0.37-0.25 0.61 0 0.24 0.1 0.46 0.25 0.61 0.16 0.16 0.37 0.25 0.61 0.25s0.46-0.1 0.61-0.25c0.16-0.16 0.25-0.37 0.25-0.61 0-0.24-0.1-0.46-0.25-0.61zm-1.5865-19.551c-0.16-0.16-0.37-0.25-0.61-0.25-0.24 0-0.46 0.1-0.61 0.25-0.16 0.16-0.25 0.37-0.25 0.61s0.1 0.46 0.25 0.61c0.16 0.16 0.37 0.25 0.61 0.25 0.24 0 0.46-0.1 0.61-0.25 0.16-0.16 0.25-0.37 0.25-0.61s-0.1-0.46-0.25-0.61zm-13.366 3.3989c-0.16-0.16-0.37-0.25-0.61-0.25-0.24 0-0.46 0.1-0.61 0.25-0.16 0.16-0.25 0.37-0.25 0.61s0.1 0.46 0.25 0.61c0.16 0.16 0.37 0.25 0.61 0.25 0.24 0 0.46-0.1 0.61-0.25 0.16-0.16 0.25-0.37 0.25-0.61s-0.1-0.46-0.25-0.61z" fill="#1a1a1a" fill-rule="evenodd" style="paint-order:fill markers stroke"/>
    </g>
   </g>
  </g>
  <g transform="matrix(.035497 0 0 .035497 6.0988 58.208)">
   <path d="m1921.7 1733.4c94.306-55.427 145.92-151.62 122.62-250.28-19.812-83.871-80.484-130.79-170.2-163.16 25.45 22.186 61.02 20.327 72.141 83.688 14.237 81.133-4.7222 105.35-22.633 164.36-1.181 28.237-6.0637 53.304 29.88 63.411-43.288 59.796-100.53 78.343-178.07 91.702-95.385 9.9931-358.98 15.838-460.81 13.234-53.445 25.766-27.562 37.158-26.996 39.769 131.12 2.4834 388.56 1.8509 485.49 1.8723 78.358-16.947 109.69-21.737 148.58-44.594z" fill="#75ad4e" fill-rule="evenodd"/>
  </g>
  <path d="m73.097 109.9c0.53363-2.5567 0.37693-4.1664-0.47434-4.8331 6.4756 2.2297 9.2073 5.313 8.1866 9.2501-0.9741 1.7922-1.9778 2.2764-3.007 1.4525-1.0842-0.8664-1.135-2.7521-0.9741-4.0177 0.24141-1.8262-0.18635-3.0451-1.2833-3.6525 1.2113 2.3741-0.11012 4.1069 0.13976 5.4914 0.11858 0.66253 1.4993 2.3868-0.04657 2.4972-2.9519 0.20811-3.2145-4.0729-2.5454-6.1837l0.0042-4e-3z" fill="#008000" fill-rule="evenodd"/>
 </g>
</svg>
